<svg width="215" height="215" viewBox="0 0 215 215" fill="none" xmlns="http://www.w3.org/2000/svg">
<path d="M101.114 215H212.418C213.331 215 213.767 213.876 213.092 213.261L178.319 181.573C177.983 181.267 177.896 180.771 178.108 180.368L190.946 155.996C191.42 155.096 190.403 154.145 189.537 154.679L131.98 190.105L101.114 215Z" fill="white"/>
<path d="M202.228 107.5C202.228 166.871 156.958 215 101.114 215C45.2702 215 0 166.871 0 107.5C0 48.1294 45.2702 0 101.114 0C156.958 0 202.228 48.1294 202.228 107.5Z" fill="white"/>
<path d="M100.259 176.528H169.836C170.75 176.528 171.185 175.402 170.508 174.787L149.393 155.609C149.055 155.302 148.968 154.805 149.181 154.401L156.554 140.45C157.029 139.551 156.014 138.599 155.147 139.131L119.818 160.805L100.259 176.528Z" fill="#6966CD"/>
<path d="M164.331 108.633C164.331 146.13 135.645 176.528 100.259 176.528C64.8724 176.528 36.1862 146.13 36.1862 108.633C36.1862 71.1358 64.8724 40.7383 100.259 40.7383C135.645 40.7383 164.331 71.1358 164.331 108.633Z" fill="#6966CD"/>
<ellipse cx="101.114" cy="109.764" rx="37.2525" ry="39.6053" fill="white"/>
</svg>
